PathFileType	4	(X/Y/Z)	S01_0004_Gait_markers.trc
DataRate	CameraRate	NumFrames	NumMarkers	Units	OrigDataRate	OrigDataStartFrame	OrigNumFrames
250.000000	250.000000	4	54	mm	250.000000	280	320
Frame#	Time	HEAD_ANT			R_HEAD			L_HEAD			C7			R_BACK			L_BACK			STERNUM			R_ACROMION			R_HUM_PROX			R_HUM_ANT			R_HUM_POST			R_ELBOW_LAT			R_ELBOW_MED			R_FOREARM			R_WIRST_LAT			R_WRITS_MED			R_HAND			L_ACROMION			L_HUM_PROX			L_HUM_ANT			L_HUM_POST			L_ELBOW_LAT			L_ELBOW_MED			L_FOREARM			L_WRIST_LAT			L_WIRST_MED			L_HAND			R_ILIAC			SACRUM			L_ILIAC			R_GTROCH			R_THIGH__1			R_THIGH_2			R_THIGH_3			R_THIGH_4			R_SHANK_1			R_SHANK_2			R_SHANK_3			R_SHANK_4			R_HEEL			R_FOOT_LAT			R_FOOT_MED			L_GTROCH			L_THIGH_1			L_THIGH_2			L_THIGH_3			L_THIGH_4			L_SHANK_1			L_SHANK_2			L_SHANK_3			L_SHANK_4			L_HEEL			L_FOOT_LAT			L_FOOT_MED			
		X1	Y1	Z1	X2	Y2	Z2	X3	Y3	Z3	X4	Y4	Z4	X5	Y5	Z5	X6	Y6	Z6	X7	Y7	Z7	X8	Y8	Z8	X9	Y9	Z9	X10	Y10	Z10	X11	Y11	Z11	X12	Y12	Z12	X13	Y13	Z13	X14	Y14	Z14	X15	Y15	Z15	X16	Y16	Z16	X17	Y17	Z17	X18	Y18	Z18	X19	Y19	Z19	X20	Y20	Z20	X21	Y21	Z21	X22	Y22	Z22	X23	Y23	Z23	X24	Y24	Z24	X25	Y25	Z25	X26	Y26	Z26	X27	Y27	Z27	X28	Y28	Z28	X29	Y29	Z29	X30	Y30	Z30	X31	Y31	Z31	X32	Y32	Z32	X33	Y33	Z33	X34	Y34	Z34	X35	Y35	Z35	X36	Y36	Z36	X37	Y37	Z37	X38	Y38	Z38	X39	Y39	Z39	X40	Y40	Z40	X41	Y41	Z41	X42	Y42	Z42	X43	Y43	Z43	X44	Y44	Z44	X45	Y45	Z45	X46	Y46	Z46	X47	Y47	Z47	X48	Y48	Z48	X49	Y49	Z49	X50	Y50	Z50	X51	Y51	Z51	X52	Y52	Z52	X53	Y53	Z53	X54	Y54	Z54	

281	1.12	1728.064819335938	1710.430786132812	-372.1474609374996	1664.503540039062	1668.792602539062	-293.8009338378902	1669.40966796875	1656.876586914062	-439.4662475585934	1524.772827148438	1498.207641601562	-365.4545593261715	1440.700073242188	1300.903442382812	-309.3757019042966	1451.720458984375	1308.633911132812	-446.5049133300778	1697.763793945312	1329.330200195312	-353.3109741210935	1587.201416015625	1442.7158203125	-188.3517608642575	1532.93408203125	1283.23388671875	-104.6123199462888	1590.205810546875	1195.685302734375	-92.77960205078098	1469.13330078125	1202.938232421875	-99.02329254150364	1512.724731445312	1094.08837890625	-84.75766754150366	1496.741333007812	1090.033935546875	-166.7910614013669	1605.973388671875	908.3800048828125	-73.56940460205058	1648.057861328125	842.0526123046875	-108.5389328002928	1574.507446289062	820.2054443359375	-79.84340667724591	1638.6943359375	752.2800903320312	-55.65544509887678	1619.10009765625	1452.38037109375	-526.6198120117184	1620.417846679688	1289.232421875	-624.3470458984372	1687.31982421875	1213.635131835938	-614.7906494140623	1572.148071289062	1208.206665039063	-658.7028808593748	1639.674438476562	1109.672729492188	-661.5704956054685	1582.884033203125	1097.91552734375	-611.944396972656	1765.320678710938	949.3587646484376	-627.8819580078123	1796.169311523438	891.4897460937501	-572.5023803710935	1765.296020507812	865.3866577148439	-640.2719726562498	1846.831909179688	821.2432861328126	-616.856018066406	1597.1025390625	1044.046875	-201.7578277587888	1468.488525390625	1021.351257324219	-367.4476623535154	1585.027099609375	1048.981811523438	-546.4396362304685	1565.1396484375	895.2514038085938	-189.4300842285154	1679.553100585938	628.6203002929688	-211.9927673339842	1727.61669921875	661.9896240234375	-204.6931152343749	1765.962524414062	569.2081909179688	-244.7187347412108	1702.863891601562	552.9304809570312	-237.5612487792968	1772.5068359375	336.9142761230469	-237.1842193603515	1831.844970703125	338.9042053222657	-249.9987792968749	1861.03515625	259.6744384765626	-269.3111572265624	1798.952880859375	241.1660156250001	-261.4783020019531	1849.254028320312	33.35212707519539	-352.239013671875	2010.541137695312	63.1143531799317	-267.2627868652344	2052.059326171875	107.5349578857423	-353.7986755371094	1537.262084960938	941.7968750000001	-549.6464233398435	1538.179321289062	650.5848999023439	-538.0292358398436	1492.091918945312	685.6221923828126	-549.5289306640624	1449.994995117188	593.6710205078126	-518.1508789062499	1511.470092773438	576.4808349609376	-512.8587646484374	1362.216796875	337.3557434082032	-496.7249145507812	1301.6376953125	343.2998657226564	-498.5381774902343	1262.169555664062	267.4591369628907	-478.1373596191406	1322.194213867188	245.5427551269532	-471.2495422363281	1146.4755859375	116.230194091797	-402.0792236328125	1297.463134765625	19.39088249206553	-463.3151245117188	1336.836791992188	29.81062507629402	-359.9968872070312	
282	1.124	1733.86962890625	1709.796020507812	-371.4790344238277	1670.44287109375	1668.297119140625	-293.1443481445309	1675.483276367188	1656.277709960938	-438.7702026367184	1530.607421875	1497.404418945312	-364.8319396972653	1446.906860351562	1299.988525390625	-308.8821105957028	1457.933837890625	1307.750366210938	-445.5332031249997	1703.89208984375	1328.78466796875	-352.7839050292966	1593.124267578125	1441.999145507812	-187.7451782226559	1538.949829101562	1282.319946289062	-104.3286056518552	1596.34326171875	1194.859497070312	-92.59271240234348	1475.093505859375	1201.9658203125	-98.90844726562473	1518.714965820312	1093.092041015625	-84.70912170410132	1502.846435546875	1089.249755859375	-166.9228668212888	1611.500244140625	907.412353515625	-73.61175537109355	1653.850219726562	841.0812377929688	-108.3733596801756	1580.053955078125	819.12060546875	-80.0598831176756	1643.86083984375	751.0944213867188	-55.71616744995101	1624.762451171875	1451.827026367188	-526.1721801757809	1626.227172851562	1288.63427734375	-623.8060913085934	1693.238403320312	1213.012329101563	-614.3909912109373	1578.000366210938	1207.564086914063	-658.1314697265623	1645.227783203125	1109.1591796875	-661.0873413085935	1589.056884765625	1097.400268554688	-611.078186035156	1770.906372070312	948.5404052734376	-627.8422851562498	1801.976318359375	890.7648315429689	-572.594543457031	1770.68603515625	864.7234497070314	-640.2199707031248	1852.280639648438	820.3179321289064	-617.170715332031	1603.295043945312	1043.43310546875	-201.3463745117185	1474.951538085938	1020.574279785156	-367.1972045898435	1591.404541015625	1048.46923828125	-546.0822143554685	1571.726806640625	894.607666015625	-189.4625244140623	1686.694091796875	628.3034057617188	-212.3424224853514	1734.769653320312	661.7947998046875	-205.124542236328	1773.238891601562	569.0529174804688	-245.2382965087889	1710.200073242188	552.6854858398438	-238.0572052001952	1778.913940429688	336.1015319824219	-238.0338745117187	1838.315063476562	337.9981079101563	-250.7044525146484	1867.033203125	258.5895080566407	-269.9647521972656	1804.765380859375	240.4671478271485	-261.9793090820312	1853.8134765625	32.33673858642586	-353.0533752441406	2015.116821289062	61.65187454223638	-268.1641540527344	2056.697509765625	105.8217086791993	-354.8572387695312	1543.776489257812	941.1867065429689	-549.2081909179685	1544.570434570312	650.0220947265626	-538.4010009765624	1498.716796875	685.0663452148439	-549.7449951171874	1456.635620117188	593.0102539062501	-518.6806030273436	1518.095825195312	576.0371093750001	-513.4008178710936	1366.89697265625	337.1407775878907	-497.3309936523437	1306.472778320312	343.7959289550782	-499.2573852539062	1265.963500976562	268.5414123535157	-479.3558044433593	1325.538818359375	246.2212219238282	-472.0903625488281	1148.355834960938	119.2394943237306	-403.3260192871094	1297.77099609375	19.45314407348643	-463.6244201660156	1336.86962890625	29.94514846801766	-360.2435302734375	
283	1.128	1739.851196289062	1709.33642578125	-370.9843749999996	1676.276733398438	1667.599365234375	-292.5339050292965	1681.193969726562	1655.756225585938	-438.1066284179684	1536.521728515625	1496.8115234375	-364.165374755859	1452.842895507812	1299.18017578125	-308.2701416015622	1463.623779296875	1307.130004882812	-445.3614501953122	1709.997314453125	1328.27587890625	-352.3356933593747	1599.125610351562	1441.301513671875	-187.2266235351559	1544.965087890625	1281.465087890625	-103.9582061767575	1602.358764648438	1193.98583984375	-92.25494384765598	1481.141235351562	1201.184936523438	-98.70361328124973	1524.703857421875	1092.124145507812	-84.73735046386695	1509.33203125	1088.516845703125	-166.9466094970701	1617.30419921875	906.3072509765625	-73.68466186523418	1659.550048828125	839.884033203125	-108.3548278808592	1585.6298828125	818.1710205078125	-80.3889846801756	1649.211669921875	749.87939453125	-55.98044204711898	1630.7265625	1451.336547851563	-525.6464233398434	1632.13427734375	1288.197631835938	-623.3091430664059	1698.8095703125	1212.471557617188	-613.9490966796873	1583.601928710938	1207.037841796875	-657.429992675781	1650.911010742188	1108.633911132813	-660.384338378906	1594.506103515625	1096.961669921875	-610.2313232421873	1776.512939453125	947.8945922851564	-627.8585815429685	1807.687744140625	889.9703369140626	-572.697814941406	1776.213745117188	864.0196533203126	-640.3013916015623	1857.732055664062	819.8333129882814	-617.232238769531	1609.671264648438	1042.908081054688	-200.8779449462888	1481.356689453125	1019.870788574219	-366.9692382812498	1597.456298828125	1048.164916992188	-545.8531494140623	1578.206909179688	894.0745239257812	-189.3848571777342	1693.91845703125	627.8944702148438	-212.9255981445311	1741.94140625	661.4385986328125	-205.8851165771483	1780.592529296875	568.915283203125	-245.7667846679686	1717.480590820312	552.3226928710938	-238.0399475097655	1785.368041992188	335.5617675781251	-238.5356140136718	1844.633178710938	336.8431091308594	-251.4440917968749	1872.754028320312	257.3592834472657	-270.7502136230468	1810.493286132812	239.7711029052735	-262.5404663085937	1858.001342773438	31.15325355529793	-353.7741088867188	2019.263427734375	59.90234375000006	-268.9485168457031	2060.98583984375	103.4870605468751	-355.7100524902344	1550.070068359375	940.7584838867189	-548.901916503906	1551.0341796875	649.5163574218751	-538.3887329101561	1505.333984375	684.5619506835939	-549.8450927734374	1463.40380859375	592.4595947265626	-519.2858276367186	1524.675903320312	575.2841796875001	-514.0560302734374	1371.874755859375	337.2593383789064	-498.2451477050781	1311.4833984375	344.6387329101564	-500.4347534179687	1269.953857421875	269.877655029297	-480.2934570312499	1329.409545898438	246.5086975097657	-472.7329101562499	1150.260498046875	122.2450332641602	-404.5807495117188	1298.037353515625	19.58549690246592	-463.8568420410156	1337.015869140625	30.05526924133309	-360.4791870117188	
284	1.132	1745.617309570312	1708.71044921875	-370.3261413574215	1682.139038085938	1667.009155273438	-291.8820800781246	1687.087158203125	1655.15380859375	-437.6049194335934	1542.466430664062	1496.2529296875	-363.584808349609	1458.97216796875	1298.348266601562	-307.6944274902341	1469.762084960938	1306.56640625	-444.9323730468747	1716.135498046875	1327.8447265625	-351.8164062499997	1605.189331054688	1440.608032226562	-186.5200805664059	1551.0732421875	1280.5791015625	-103.4316635131833	1608.457275390625	1193.099487304688	-92.1011657714841	1487.191650390625	1200.2568359375	-98.62541961669895	1530.845703125	1091.387451171875	-84.6376571655271	1515.228149414062	1087.719970703125	-167.0943756103513	1623.097778320312	905.356201171875	-73.63088989257793	1664.147094726562	838.2601318359375	-108.8721771240233	1591.220825195312	817.2056884765625	-80.57779693603497	1654.524047851562	748.6995849609375	-56.18675994873031	1636.53515625	1450.889770507813	-525.0129394531247	1637.915161132812	1287.669555664063	-622.6976318359372	1704.776489257812	1211.961547851563	-613.4142456054685	1589.4052734375	1206.577270507813	-656.870910644531	1656.432739257812	1108.085205078125	-659.8203124999998	1600.497924804688	1096.59228515625	-609.648498535156	1781.553588867188	947.3085327148439	-627.880676269531	1813.251342773438	889.2736816406251	-572.7848510742185	1781.503295898438	863.4238281250001	-640.408264160156	1863.179443359375	819.1023559570314	-617.6276245117185	1615.69970703125	1042.379516601562	-200.6272277832029	1487.84228515625	1019.1865234375	-366.8753967285154	1603.90966796875	1047.819702148438	-545.6660156249998	1584.9150390625	893.4581298828125	-189.302291870117	1701.161376953125	627.6195678710938	-213.7422790527342	1749.167236328125	661.1022338867188	-206.3878784179686	1787.851318359375	568.579833984375	-246.3551788330077	1724.786865234375	552.193603515625	-238.6370391845702	1791.563110351562	334.6103820800782	-239.6585083007812	1850.905517578125	335.7607116699219	-252.5676879882812	1877.717651367188	255.8477783203126	-271.9152221679687	1815.996826171875	238.808090209961	-263.2361450195312	1861.689208984375	29.9356002807618	-354.4801635742188	2023.022583007812	57.92885589599615	-269.62890625	2064.96826171875	101.4816818237306	-356.4176025390625	1556.527221679688	940.3446044921876	-548.6986694335935	1558.006591796875	648.9879150390626	-538.7719116210936	1512.0791015625	684.1041870117189	-550.2077636718749	1470.335083007812	591.5725708007814	-519.8533935546874	1531.780883789062	574.7585449218751	-514.4163818359374	1376.7646484375	337.2800903320314	-499.0090942382812	1316.5927734375	345.4481506347657	-501.1378784179687	1274.098388671875	271.1242980957032	-481.3624267578124	1333.14794921875	247.074188232422	-473.7930603027343	1152.346801757812	125.2913131713868	-405.9104309082031	1298.40380859375	19.76056480407725	-464.0556030273438	1337.107543945312	30.17160797119149	-360.6860656738281	
